<svg xmlns="http://www.w3.org/2000/svg" viewBox="0 0 32 32" width="32" height="32">
  <defs>
    <linearGradient id="favGradient" x1="0%" y1="0%" x2="0%" y2="100%">
      <stop offset="0%" style="stop-color:#1976d2;stop-opacity:1" />
      <stop offset="100%" style="stop-color:#42a5f5;stop-opacity:1" />
    </linearGradient>
    <linearGradient id="favGradientLight" x1="0%" y1="0%" x2="0%" y2="100%">
      <stop offset="0%" style="stop-color:#2196f3;stop-opacity:1" />
      <stop offset="100%" style="stop-color:#64b5f6;stop-opacity:1" />
    </linearGradient>
  </defs>
  
  <!-- Angular-style shield shape -->
  <polygon points="16,4 6,9 8,23 16,28 24,23 26,9" fill="url(#favGradient)"/>
  <polygon points="16,4 26,9 24,23 16,28" fill="url(#favGradientLight)"/>
  
  <!-- Letter "A" -->
  <g fill="white">
    <polygon points="16,10 11,22 12.5,22 13.5,19 18.5,19 19.5,22 21,22"/>
    <rect x="14.2" y="17.5" width="3.6" height="1.2"/>
  </g>
  
  <!-- Form lines -->
  <g fill="white" opacity="0.9">
    <rect x="18" y="15" width="5" height="0.8" rx="0.4"/>
    <rect x="18" y="17" width="4" height="0.8" rx="0.4"/>
    <rect x="18" y="19" width="5" height="0.8" rx="0.4"/>
  </g>
</svg>
